<svg xmlns="http://www.w3.org/2000/svg" viewBox="0 0 803 421" role="img" aria-labelledby="faviconTitle">
  <title id="faviconTitle">LKT logo</title>
  <style>
    svg {
      color: #191612;
    }

    @media (prefers-color-scheme: dark) {
      svg {
        color: #f2eadf;
      }
    }
  </style>
  <path d="M217.588 420.202C194.639 420.202 176.438 418.223 162.985 414.267C149.532 409.914 139.839 402.001 133.903 390.526C127.968 378.656 125.001 361.643 125.001 339.485V0H208.092V319.306C208.092 332.759 210.664 341.661 215.807 346.014C220.951 349.97 231.041 351.949 246.076 351.949H270.41V420.202H217.588Z" fill="currentColor"/>
  <path d="M310.527 420.202V0H393.024V241.557L495.107 125.823H593.036L479.676 248.679L603.125 420.202H505.197L424.48 307.436L393.024 341.266V420.202H310.527Z" fill="currentColor"/>
  <path d="M747.894 420.202C724.945 420.202 706.744 418.223 693.292 414.267C679.839 409.914 670.145 402.001 664.21 390.526C658.67 378.656 655.901 361.445 655.901 338.892V189.328H607.233V125.823H655.901V52.2285H738.991V125.823H802.497V189.328H738.991V318.119C738.991 332.363 741.365 341.661 746.113 346.014C751.257 349.97 760.951 351.949 775.195 351.949H802.497V420.202H747.894Z" fill="currentColor"/>
  <path d="M0 335.415H84.7865V420.202H0V335.415Z" fill="currentColor"/>
</svg>
